<svg width="127" height="40" viewBox="0 0 127 40" fill="none" xmlns="http://www.w3.org/2000/svg">
<path d="M36.3989 25.4805C36.3989 25.4805 35.5608 33.9183 35.3879 35.3928H38.1894C38.1894 35.3928 38.5187 33.1056 39.2851 26.6175C39.4254 25.4412 39.6178 23.0818 39.6178 23.0818L36.3989 25.4805Z" fill="#575757"/>
<path d="M28.7839 3.77816C32.3778 2.88359 34.964 4.55804 36.1413 11.7998C36.4837 14.1001 36.6468 16.4234 36.6337 18.7466C37.7197 17.8881 38.7568 17.0525 39.745 16.2399C39.6634 13.4546 39.3243 10.6857 38.7372 7.96264C37.4849 2.37896 33.9367 0 30.3232 0C29.8079 0.00327681 29.2926 0.0524289 28.7806 0.140903L28.7839 3.77816Z" fill="#575757"/>
<path d="M30.3232 0C26.1423 0 18.5174 3.61432 10.8013 12.0521C2.09373 21.5745 0 29.0555 0 32.9745C0 36.8936 2.59596 40 7.31175 40C12.0275 40 19.5871 37.0083 30.8222 29.4126C42.0572 21.817 52.927 12.3077 52.927 12.3077L50.5821 6.89113C48.1656 8.83428 37.5534 19.1071 23.38 28.2821C9.774 37.0869 5.44957 35.632 4.85602 34.5048C4.35378 33.5512 3.33953 30.1696 8.85432 21.2403C14.3691 12.311 22.956 5.9769 27.3163 4.25985C28.2719 3.85025 29.2894 3.61432 30.3265 3.56189L30.3232 0Z" fill="#575757"/>
<path d="M124.176 18.6912V35.3866H127V18.6912H124.176Z" fill="#575757"/>
<path d="M72.3772 26.0378V23.7703H63.2848V26.2737H68.9822L63.1185 33.024L64.1392 35.3833H72.5664V32.8798H66.37L72.3772 26.0378Z" fill="#575757"/>
<path d="M52.8846 18.6912L45.6935 35.3866H48.8733L50.5333 31.4511H58.0374L59.6974 35.3866H62.8771L55.6893 18.6912H52.8846ZM51.6193 28.8755L54.2837 22.5546L56.9482 28.8755H51.6193Z" fill="#575757"/>
<path d="M112.305 23.5081C108.721 23.5081 106.369 26.1066 106.369 29.5669C106.369 33.1452 108.695 35.6487 112.256 35.6487C114.441 35.6487 116.195 34.7672 117.311 33.2402L115.224 31.6903C114.545 32.6373 113.44 33.1747 112.279 33.1223C110.681 33.2075 109.317 31.9819 109.216 30.3796H117.81V29.2098C117.813 25.6086 115.723 23.5081 112.305 23.5081ZM109.265 28.3512C109.575 26.7292 110.642 25.7527 112.184 25.7527C113.655 25.7527 114.747 26.6113 114.986 28.3512H109.265Z" fill="#575757"/>
<path d="M119.424 35.3866H122.248V18.6912H119.424V35.3866Z" fill="#575757"/>
<path d="M100.078 26.0608C101.36 26.0444 102.518 26.8341 102.974 28.0399L105.42 26.7292C104.422 24.6779 102.857 23.5081 100.007 23.5081C96.3964 23.5081 93.9993 26.0116 93.9993 29.5669C93.9993 33.1223 96.3507 35.6487 99.9348 35.6487C102.498 35.6487 104.351 34.4559 105.417 32.4997L102.971 31.189C102.377 32.3588 101.428 33.0961 100.075 33.0961C98.2227 33.0961 96.8692 31.5461 96.8692 29.5669C96.8692 27.5877 98.2259 26.0608 100.078 26.0608Z" fill="#575757"/>
<path d="M89.3716 25.4644H89.1824V23.7703H86.3549V35.3866H89.1792V29.9962C89.1792 27.899 90.2945 26.277 92.0263 26.277C92.4535 26.2672 92.8774 26.3327 93.2851 26.4671V23.7015C92.9655 23.6326 92.6394 23.5999 92.3132 23.6064C91.0479 23.5638 89.8836 24.3011 89.3716 25.4644Z" fill="#575757"/>
<path d="M79.3074 23.5081C75.7233 23.5081 73.3719 26.1066 73.3719 29.5669C73.3719 33.1452 75.6972 35.6487 79.2585 35.6487C81.4435 35.6487 83.1981 34.7672 84.3134 33.2402L82.2229 31.6903C81.5446 32.6373 80.439 33.1747 79.278 33.1223C77.68 33.2075 76.3168 31.9819 76.2157 30.3796H84.8091V29.2098C84.8156 25.6086 82.7252 23.5081 79.3074 23.5081ZM76.2679 28.3512C76.5777 26.7292 77.6441 25.7527 79.1867 25.7527C80.6575 25.7527 81.7501 26.6113 81.9881 28.3512H76.2679Z" fill="#575757"/>
</svg>
