<svg width="184" height="40" viewBox="0 0 184 40" fill="none" xmlns="http://www.w3.org/2000/svg">
<g clip-path="url(#clip0)">
<path d="M126.976 34.7877H128.497C128.754 34.7877 128.993 34.8111 129.209 34.8578C129.424 34.9045 129.611 34.9803 129.763 35.0737C129.914 35.173 130.037 35.3014 130.124 35.459C130.212 35.6166 130.252 35.8092 130.252 36.031C130.252 36.2878 130.177 36.5154 130.037 36.7197C129.891 36.924 129.669 37.0641 129.366 37.1458V37.175C129.739 37.2334 130.031 37.3618 130.241 37.5661C130.451 37.7704 130.556 38.0505 130.556 38.4007C130.556 38.6517 130.509 38.8677 130.416 39.0545C130.322 39.2412 130.188 39.3988 130.019 39.5214C129.844 39.6498 129.64 39.7374 129.401 39.8016C129.162 39.8658 128.9 39.895 128.614 39.895H126.987V34.7877H126.976ZM128.381 36.9707C128.824 36.9707 129.139 36.8948 129.331 36.7431C129.518 36.5913 129.617 36.3753 129.617 36.0893C129.617 35.8092 129.518 35.6049 129.314 35.4881C129.115 35.3656 128.812 35.3014 128.416 35.3014H127.629V36.9707H128.381ZM128.509 39.393C128.952 39.393 129.296 39.3113 129.541 39.1479C129.786 38.9844 129.908 38.7276 129.908 38.3774C129.908 38.0622 129.792 37.8287 129.553 37.677C129.314 37.531 128.97 37.4552 128.515 37.4552H127.623V39.393H128.509Z" fill="#575757"/>
<path d="M133.052 34.3324C132.929 34.3324 132.824 34.2916 132.736 34.2157C132.649 34.1398 132.608 34.0347 132.608 33.9122C132.608 33.7954 132.649 33.6962 132.736 33.6145C132.824 33.5386 132.929 33.4977 133.052 33.4977C133.18 33.4977 133.285 33.5386 133.367 33.6145C133.454 33.6904 133.495 33.7896 133.495 33.9122C133.495 34.0406 133.449 34.1398 133.367 34.2157C133.279 34.2974 133.174 34.3324 133.052 34.3324ZM132.731 34.7877H133.379V39.9066H132.731V34.7877Z" fill="#575757"/>
<path d="M138.759 39.9066L137.529 37.7412H136.602V39.9066H135.955V34.7877H137.552C137.815 34.7877 138.054 34.8111 138.275 34.8636C138.497 34.9161 138.684 34.9978 138.847 35.1087C139.004 35.2255 139.127 35.3714 139.214 35.5523C139.302 35.7333 139.348 35.9551 139.348 36.2236C139.348 36.6263 139.243 36.9415 139.039 37.1867C138.829 37.426 138.555 37.5894 138.206 37.677L139.5 39.9125H138.759V39.9066ZM136.596 37.2159H137.453C137.856 37.2159 138.159 37.1341 138.375 36.9707C138.59 36.8073 138.695 36.5563 138.695 36.2236C138.695 35.8851 138.59 35.6516 138.375 35.5115C138.159 35.3772 137.856 35.3072 137.453 35.3072H136.596V37.2159Z" fill="#575757"/>
<path d="M141.973 34.3324C141.85 34.3324 141.739 34.2916 141.657 34.2157C141.57 34.1398 141.529 34.0347 141.529 33.9122C141.529 33.7954 141.576 33.6962 141.657 33.6145C141.745 33.5386 141.85 33.4977 141.973 33.4977C142.095 33.4977 142.2 33.5386 142.288 33.6145C142.375 33.6904 142.416 33.7896 142.416 33.9122C142.416 34.0406 142.37 34.1398 142.288 34.2157C142.2 34.2974 142.095 34.3324 141.973 34.3324ZM141.652 34.7877H142.3V39.9066H141.652V34.7877Z" fill="#575757"/>
<path d="M144.87 34.7877H145.541L147.389 38.0038L147.943 39.0661H147.972C147.954 38.8035 147.937 38.535 147.919 38.2607C147.902 37.9805 147.89 37.7062 147.89 37.4377V34.7877H148.503V39.9067H147.832L145.978 36.6847L145.424 35.6282H145.395C145.418 35.8909 145.436 36.1535 145.453 36.422C145.471 36.6905 145.482 36.959 145.482 37.2275V39.9067H144.864V34.7877H144.87Z" fill="#575757"/>
<path d="M150.788 37.3501C150.788 36.9415 150.847 36.5679 150.957 36.2411C151.074 35.9142 151.231 35.634 151.435 35.4064C151.64 35.1788 151.879 34.9978 152.158 34.8811C152.438 34.7585 152.742 34.7001 153.068 34.7001C153.383 34.7001 153.651 34.7643 153.884 34.8927C154.118 35.0212 154.31 35.1671 154.462 35.3305L154.094 35.7449C153.96 35.599 153.809 35.4823 153.645 35.3947C153.482 35.3072 153.29 35.2663 153.074 35.2663C152.829 35.2663 152.607 35.313 152.409 35.4122C152.211 35.5115 152.042 35.6457 151.902 35.8266C151.762 36.0076 151.651 36.2236 151.575 36.4804C151.5 36.7372 151.459 37.0232 151.459 37.3384C151.459 37.6594 151.494 37.9513 151.57 38.2081C151.645 38.4649 151.75 38.6867 151.884 38.8677C152.018 39.0486 152.182 39.1887 152.38 39.2879C152.572 39.3871 152.794 39.4338 153.039 39.4338C153.29 39.4338 153.505 39.3871 153.692 39.2879C153.879 39.1887 154.053 39.0486 154.217 38.8677L154.584 39.2646C154.38 39.498 154.153 39.679 153.896 39.8132C153.639 39.9416 153.348 40.0058 153.021 40.0058C152.701 40.0058 152.403 39.9475 152.129 39.8249C151.855 39.7082 151.616 39.5331 151.418 39.3054C151.22 39.0778 151.062 38.8035 150.951 38.4708C150.847 38.138 150.788 37.7645 150.788 37.3501Z" fill="#575757"/>
<path d="M157.028 34.3324C156.905 34.3324 156.8 34.2916 156.712 34.2157C156.625 34.1398 156.584 34.0347 156.584 33.9122C156.584 33.7954 156.625 33.6962 156.712 33.6145C156.8 33.5386 156.905 33.4977 157.028 33.4977C157.15 33.4977 157.255 33.5386 157.343 33.6145C157.43 33.6904 157.471 33.7896 157.471 33.9122C157.471 34.0406 157.424 34.1398 157.343 34.2157C157.255 34.2974 157.15 34.3324 157.028 34.3324ZM156.707 34.7877H157.354V39.9066H156.707V34.7877Z" fill="#575757"/>
<path d="M162.671 34.7877H164.193C164.455 34.7877 164.689 34.8111 164.904 34.8578C165.12 34.9045 165.307 34.9803 165.458 35.0737C165.61 35.173 165.732 35.3014 165.82 35.459C165.907 35.6166 165.948 35.8092 165.948 36.031C165.948 36.2878 165.872 36.5154 165.732 36.7197C165.587 36.924 165.365 37.0641 165.062 37.1458V37.175C165.435 37.2334 165.726 37.3618 165.936 37.5661C166.146 37.7704 166.245 38.0505 166.245 38.4007C166.245 38.6517 166.199 38.8677 166.105 39.0545C166.012 39.2412 165.878 39.3988 165.709 39.5214C165.534 39.6498 165.33 39.7374 165.091 39.8016C164.852 39.8658 164.59 39.895 164.304 39.895H162.677V34.7877H162.671ZM164.076 36.9707C164.52 36.9707 164.834 36.8948 165.021 36.7431C165.213 36.5913 165.307 36.3753 165.307 36.0893C165.307 35.8092 165.208 35.6049 165.009 35.4881C164.805 35.3656 164.508 35.3014 164.106 35.3014H163.318V36.9707H164.076ZM164.211 39.393C164.654 39.393 164.998 39.3113 165.243 39.1479C165.487 38.9844 165.61 38.7276 165.61 38.3774C165.61 38.0622 165.493 37.8287 165.254 37.677C165.015 37.531 164.671 37.4552 164.216 37.4552H163.324V39.393H164.211Z" fill="#575757"/>
<path d="M170.764 38.3482H168.904L168.409 39.9124H167.75L169.482 34.7935H170.216L171.948 39.9124H171.254L170.764 38.3482ZM170.601 37.8229L170.362 37.0407C170.269 36.7547 170.175 36.4687 170.094 36.1885C170.006 35.9025 169.925 35.6165 169.843 35.3188H169.814C169.738 35.6165 169.656 35.9084 169.575 36.1885C169.493 36.4687 169.4 36.7547 169.307 37.0407L169.068 37.8229H170.601Z" fill="#575757"/>
<path d="M173.837 34.7877H174.508L176.356 38.0038L176.91 39.0661H176.939C176.927 38.8035 176.91 38.535 176.887 38.2607C176.869 37.9805 176.857 37.7062 176.857 37.4377V34.7877H177.475V39.9067H176.805L174.951 36.6847L174.397 35.6282H174.368C174.391 35.8909 174.408 36.1535 174.426 36.422C174.443 36.6905 174.455 36.959 174.455 37.2275V39.9067H173.837V34.7877Z" fill="#575757"/>
<path d="M180.053 34.7877H180.7V37.3559H180.723L182.851 34.7877H183.586L181.988 36.7372L183.837 39.9067H183.108L181.58 37.245L180.7 38.284V39.9067H180.053V34.7877Z" fill="#575757"/>
<path d="M45.637 16.1564L54.7155 25.6763V25.8923H50.3249L42.436 17.5339V25.8923H38.8792V7.02173H42.436V15.0007L49.5961 7.02173H54.0158V7.12096L45.637 16.1564Z" fill="#575757"/>
<path d="M64.1496 19.6702C64.1496 18.0009 63.0126 16.209 61.1992 16.209C59.38 16.209 58.2664 18.0067 58.2664 19.6702C58.2664 21.3396 59.38 23.1607 61.1992 23.1607C63.0126 23.1607 64.1496 21.3396 64.1496 19.6702ZM67.2807 25.8865H63.7939V24.7483H63.7473C62.9893 25.7347 61.6773 26.295 60.3888 26.295C56.7562 26.295 54.6805 22.9797 54.6805 19.6177C54.6805 16.3315 56.7795 13.0687 60.3363 13.0687C61.6249 13.0687 62.9368 13.6232 63.7939 14.6388V13.4773H67.2807V25.8865Z" fill="#575757"/>
<path d="M79.5019 19.6702C79.5019 18.0009 78.394 16.209 76.5748 16.209C74.7556 16.209 73.6478 18.0067 73.6478 19.6702C73.6478 21.3396 74.7615 23.1607 76.5748 23.1607C78.394 23.1607 79.5019 21.3396 79.5019 19.6702ZM73.9977 14.6155C74.8081 13.6524 76.1142 13.0746 77.4319 13.0746C80.942 13.0746 83.0936 16.3666 83.0936 19.6235C83.0936 23.0089 81.0237 26.3009 77.3561 26.3009C76.0967 26.3009 74.7556 25.7406 74.0501 24.7308H74.0035V32.5113H70.4642V13.4715H74.0035V14.6155H73.9977Z" fill="#575757"/>
<path d="M89.07 25.8865H85.5308V13.4715H89.07V25.8865ZM89.4024 8.26503C89.4024 9.42656 88.4695 10.3663 87.3033 10.3663C86.143 10.3663 85.2101 9.42656 85.2101 8.26503C85.2101 7.12684 86.143 6.16376 87.3033 6.16376C88.4695 6.16959 89.4024 7.12684 89.4024 8.26503Z" fill="#575757"/>
<path d="M96.3468 25.8864H92.8134V16.4599H91.5948V13.4714H92.8134V9.28058H96.3468V13.4714H98.5217V16.4599H96.3468V25.8864Z" fill="#575757"/>
<path d="M108.521 19.6702C108.521 18.0009 107.384 16.209 105.565 16.209C103.746 16.209 102.632 18.0067 102.632 19.6702C102.632 21.3396 103.746 23.1607 105.565 23.1607C107.384 23.1607 108.521 21.3396 108.521 19.6702ZM111.652 25.8865H108.166V24.7483H108.119C107.361 25.7347 106.049 26.295 104.761 26.295C101.122 26.295 99.0522 22.9797 99.0522 19.6177C99.0522 16.3315 101.151 13.0687 104.708 13.0687C105.997 13.0687 107.309 13.6232 108.166 14.6388V13.4773H111.652V25.8865Z" fill="#575757"/>
<path d="M118.369 4.45355H114.83V25.8923H118.369V4.45355Z" fill="#575757"/>
<path d="M151.121 19.6702C151.121 18.0009 149.984 16.209 148.17 16.209C146.351 16.209 145.243 18.0067 145.243 19.6702C145.243 21.3396 146.351 23.1607 148.17 23.1607C149.984 23.1607 151.121 21.3396 151.121 19.6702ZM154.252 25.8865H150.765V24.7483H150.712C149.954 25.7347 148.637 26.295 147.354 26.295C143.716 26.295 141.646 22.9797 141.646 19.6177C141.646 16.3315 143.745 13.0687 147.301 13.0687C148.59 13.0687 149.902 13.6232 150.765 14.6388V13.4773H154.252V25.8865Z" fill="#575757"/>
<path d="M160.969 14.6155H161.021C161.756 13.5007 162.992 13.0746 164.251 13.0746C167.587 13.0746 168.543 15.4268 168.543 18.3102V25.8923H165.009V19.3142C165.009 17.8258 165.085 15.9055 163.091 15.9055C160.998 15.9055 160.969 18.2577 160.969 19.752V25.8923H157.429V13.4715H160.969V14.6155Z" fill="#575757"/>
<path d="M175.242 18.0242H175.289L179.003 13.4773H183.604L178.368 18.9406L184 25.8865H179.353L175.289 20.6041H175.242V25.8865H171.703V4.44769H175.242V18.0242Z" fill="#575757"/>
<path d="M130.212 22.9039H132.532C134.526 22.9039 136.246 22.647 136.246 20.1722C136.246 17.6974 134.223 17.5981 132.357 17.5981H130.212V22.9039ZM130.212 14.7614H132.206C134.025 14.7614 134.905 14.2303 134.905 12.2574C134.905 10.3137 133.792 9.80594 132.229 9.80594H130.212V14.7614ZM126.497 6.8233H132.661C136.194 6.8233 138.369 8.21831 138.369 12.0064C138.369 13.3664 137.891 14.9365 136.701 15.7012C138.952 16.1039 139.955 18.3803 139.955 20.4757C139.955 24.2171 137.331 25.8865 133.873 25.8865H126.497V6.8233Z" fill="#575757"/>
<path d="M0.145935 32.6631H32.4831V32.6572L16.3204 16.4716L0.145935 32.6631Z" fill="#575757"/>
<path d="M0.00583072 0.145935H0V32.5113L16.1744 16.3257L0.00583072 0.145935Z" fill="#575757"/>
<path fill-rule="evenodd" clip-rule="evenodd" d="M32.4831 0H0.151764V0.00583686L16.3145 16.1914L32.4831 0.00583686V0Z" fill="#575757"/>
</g>
<defs>
<clipPath id="clip0">
<rect width="184" height="40" fill="white"/>
</clipPath>
</defs>
</svg>
