<svg width="98" height="40" viewBox="0 0 98 40" fill="none" xmlns="http://www.w3.org/2000/svg">
<g clip-path="url(#clip0)">
<path d="M49.4979 31.9818C50.9483 31.9818 51.6736 31.5949 51.6736 30.6725C51.6736 29.6381 50.8842 29.2652 49.3054 29.2652H48.1144V31.9846L49.4979 31.9818ZM49.099 27.3869C50.2901 27.3869 50.8842 27.1766 50.8842 26.1561C50.8842 25.1861 50.2399 24.7965 48.954 24.7965H48.1144V27.3841L49.099 27.3869ZM45.3613 22.6938H49.3528C52.1366 22.6938 53.587 23.6975 53.587 25.8506C53.5759 26.6804 53.1463 27.4485 52.4434 27.8887V27.9195C53.5982 28.3064 54.3876 29.3829 54.4071 30.6053C54.4071 32.6938 53.1826 34.132 49.8326 34.132H45.3585L45.3613 22.6938Z" fill="#6C6C6C"/>
<path d="M60.5687 31.8865V30.4931L59.2466 30.5268C58.4572 30.5408 57.8798 30.7987 57.8798 31.4463C57.8798 31.9649 58.3791 32.192 58.8588 32.192C59.4418 32.164 60.0136 32.0603 60.5687 31.8865ZM55.2718 31.6089C55.2718 29.3745 57.3024 28.9232 59.0374 28.9232H60.5687V28.3737C60.5687 27.5971 60.0694 27.3729 58.976 27.3729C58.089 27.4037 57.2104 27.5326 56.3512 27.7597L55.8185 25.8029C56.9482 25.3403 58.1559 25.0992 59.3777 25.0908C62.1 25.0908 63.1935 25.8674 63.1935 27.8579V31.7911C63.1935 32.0855 63.4835 32.15 63.9828 32.164L63.888 34.2021C63.676 34.2217 63.4668 34.2217 63.2576 34.2217C62.1977 34.2217 61.068 34.0423 60.8253 33.2826C60.1838 33.7844 59.2633 34.2834 58.2982 34.2834C56.3652 34.2806 55.2718 33.3723 55.2718 31.6089Z" fill="#6C6C6C"/>
<path d="M65.3022 25.3011H67.9883V26.1898C68.5183 25.7861 69.6814 25.074 70.8529 25.074C73.606 25.074 73.8013 26.5935 73.8013 28.6007V34.1348H71.1263V28.8278C71.1263 27.6139 70.8529 27.4037 69.952 27.4037C69.2714 27.4149 68.5992 27.5747 67.9855 27.8746V34.1348H65.2994V25.3011H65.3022Z" fill="#6C6C6C"/>
<path d="M75.5362 21.9341H78.2223V28.5671L80.6574 25.2983H83.5388L80.3339 29.3773L84.0688 34.1348H80.7523L78.2223 30.4931V34.1348H75.5362V21.9341Z" fill="#6C6C6C"/>
<path d="M26.9602 5.85614H33.9725V17.2999H22.5865V14.7179L28.8764 8.39889L29.1861 8.09051L26.9602 5.85614Z" fill="#6C6C6C"/>
<path d="M19.8976 -0.000305176L27.9504 8.09053L19.8976 16.1814L18.0846 14.3563V4.98147H14.941L19.8976 -0.000305176Z" fill="#6C6C6C"/>
<path d="M5.82829 5.85614V12.9041L7.74176 10.9809L8.05137 10.6725L14.6453 17.2999H17.2143V5.85614H5.82829Z" fill="#6C6C6C"/>
<path d="M-0.00140381 19.9997L8.05137 11.9089L16.1013 19.9997L14.2855 21.8248H4.95801V24.9815L-0.00140381 19.9997Z" fill="#6C6C6C"/>
<path d="M5.82829 34.1432V22.6995H17.2143V25.2815L10.9244 31.6005L10.6148 31.9089L10.9244 32.2173L12.8378 34.1432H5.82829Z" fill="#6C6C6C"/>
<path d="M19.9004 39.9997L11.8476 31.9088L19.9004 23.818L21.7135 25.6403V35.0179H24.8598L19.9004 39.9997Z" fill="#6C6C6C"/>
<path d="M33.9725 34.1432H22.5837V22.6995H25.1527L31.4398 29.0213L31.7494 29.3269L32.0563 29.0185L33.9725 27.0953V34.1432Z" fill="#6C6C6C"/>
<path d="M31.7494 28.0933L23.6995 19.9997L25.5125 18.1746H34.8428V15.0179L39.7994 19.9997L31.7494 28.0933Z" fill="#6C6C6C"/>
<path d="M49.0377 11.9397C50.7419 11.9397 51.35 11.051 51.35 9.98849C51.35 8.83906 50.887 8.01764 49.4254 8.01764H48.106V11.9397H49.0377ZM45.3613 5.87018H49.7768C52.3291 5.87018 54.1616 7.37284 54.1616 9.9212C54.1616 12.164 52.3318 14.0535 48.9428 14.0535H48.106V17.2803H45.3613V5.87018Z" fill="#6C6C6C"/>
<path d="M65.7206 16.6496L66.4932 14.6815C67.45 15.046 68.4709 15.2226 69.4945 15.2002C70.8613 15.2002 71.4861 14.7797 71.4861 14.0872C71.4861 12.2313 66.0888 12.7303 66.0888 8.85872C66.0888 6.6636 68.1612 5.71041 70.1696 5.71041C71.3969 5.67677 72.6158 5.9431 73.7176 6.48698L72.931 8.39054C72.0691 8.09057 71.1625 7.93357 70.2504 7.92236C69.1124 7.92236 68.7554 8.3597 68.7554 8.8419C68.7554 10.3586 74.2503 10.3586 74.2503 13.9919C74.2503 16.4926 71.8738 17.4626 69.528 17.4626C67.6675 17.457 66.5741 17.1178 65.7206 16.6496Z" fill="#6C6C6C"/>
<path d="M75.6924 5.87018H78.4232V10.5015H82.8889V5.87018H85.6168V17.2803H82.8889V12.5817H78.4232V17.2775H75.6924V5.87018Z" fill="#6C6C6C"/>
<path d="M91.1787 11.9537L92.3196 7.56348L93.4576 11.9537H91.1787ZM94.18 5.87018H90.4563L86.6321 17.2803H89.4605L90.5372 13.9386H94.1019L95.1786 17.2803H98.0042L94.18 5.87018Z" fill="#6C6C6C"/>
<path d="M58.3344 11.9537L59.4725 7.56067L60.6133 11.9509L58.3344 11.9537ZM61.3358 5.87018H57.6092L53.7851 17.2803H56.6162L57.6901 13.9386H61.2577L62.3316 17.2803H65.1599L61.3358 5.87018Z" fill="#6C6C6C"/>
</g>
<defs>
<clipPath id="clip0">
<rect width="98" height="40" fill="white"/>
</clipPath>
</defs>
</svg>
